<!DOCTYPE svg PUBLIC "-//W3C//DTD SVG 1.1//EN" "http://www.w3.org/Graphics/SVG/1.1/DTD/svg11.dtd">
<!-- Uploaded to: SVG Repo, www.svgrepo.com, Transformed by: SVG Repo Mixer Tools -->
<svg version="1.1" id="Layer_1" xmlns="http://www.w3.org/2000/svg" xmlns:xlink="http://www.w3.org/1999/xlink" viewBox="0 0 512 512" xml:space="preserve" width="250px" height="250px" fill="#000000">
<g id="SVGRepo_bgCarrier" stroke-width="0"/>
<g id="SVGRepo_tracerCarrier" stroke-linecap="round" stroke-linejoin="round"/>
<g id="SVGRepo_iconCarrier"> <g> <path style="fill:#FFD117;" d="M116.548,248.42c1.298,0,2.614-0.304,3.845-0.944c4.087-2.128,5.676-7.165,3.548-11.252 L81.33,154.36c-1.437-2.76-4.289-4.49-7.4-4.49H44.865c-4.607,0-8.342,3.735-8.342,8.342c0,4.607,3.735,8.342,8.342,8.342h24.001 l40.274,77.374C110.627,246.784,113.536,248.42,116.548,248.42z"/> <path style="fill:#FFD117;" d="M393.976,248.42c-1.298,0-2.614-0.304-3.845-0.944c-4.087-2.128-5.676-7.165-3.548-11.252 l42.612-81.864c1.437-2.76,4.289-4.49,7.4-4.49h29.063c4.607,0,8.342,3.735,8.342,8.342c0,4.607-3.735,8.342-8.342,8.342h-24.001 l-40.274,77.374C399.896,246.784,396.987,248.42,393.976,248.42z"/> </g> <path style="fill:#FFB367;" d="M381.207,118.924c-5.65-10.853-20.282-19.733-32.518-19.733H161.836 c-12.236,0-26.868,8.88-32.518,19.733l-42.612,81.863l23.384,55.616h290.343l23.384-55.616L381.207,118.924z"/> <path style="fill:#FFFFFF;" d="M117.812,242.748h274.901l14.659-37.42l-40.965-78.699c-2.773-5.326-11.714-10.752-17.718-10.752 H161.836c-6.004,0-14.946,5.426-17.718,10.752l-40.965,78.699L117.812,242.748z"/> <g> <rect x="17.224" y="368.037" style="fill:#0E0A57;" width="87.774" height="44.771"/> <rect x="405.521" y="368.037" style="fill:#0E0A57;" width="87.774" height="44.771"/> </g> <path style="fill:#FFD117;" d="M457.139,191.58l-64.426,17.797H117.812L53.386,191.58c-30.645,0-54.626,25.016-53.336,55.616 l71.99,24.516L2.108,288.397l3.993,79.643h498.323l3.993-79.643l-69.932-16.685l71.99-24.516 C511.765,216.597,487.783,191.58,457.139,191.58z"/> <g> <path style="fill:#FF7039;" d="M512,247.197c0,0.044,0,0.089,0,0.133l-2.058,41.067H406.64c0-22.747,18.442-41.201,41.201-41.201 H512z"/> <path style="fill:#FF7039;" d="M105.409,288.397H2.108L0.05,247.33c0-0.044,0-0.089,0-0.133h64.159 C86.967,247.197,105.409,265.65,105.409,288.397z"/> </g> <rect x="162.733" y="312.376" style="fill:#FFF0B2;" width="185.058" height="38.987"/> <path style="fill:#FFB367;" d="M301.526,288.397h-92.53c-4.607,0-8.342-3.735-8.342-8.342c0-4.607,3.735-8.342,8.342-8.342h92.53 c4.607,0,8.342,3.735,8.342,8.342C309.869,284.662,306.134,288.397,301.526,288.397z"/> </g>
</svg>